<svg width="50" height="49" viewBox="0 0 50 49" fill="none" xmlns="http://www.w3.org/2000/svg">
<g clip-path="url(#clip0_1285_3868)">
<path d="M13.6724 25.567H35.9946V29.6737H38.1724V23.4337H25.9224V19.167H23.7446V23.4337H11.4946V29.6737H13.6724V25.567Z" fill="white"/>
<path d="M19.389 31.167H5.77789C4.27444 31.167 3.05566 32.3609 3.05566 33.8337V41.8337C3.05566 43.3064 4.27444 44.5003 5.77789 44.5003H19.389C20.8924 44.5003 22.1112 43.3064 22.1112 41.8337V33.8337C22.1112 32.3609 20.8924 31.167 19.389 31.167Z" fill="white"/>
<path d="M43.889 31.167H30.2779C28.7744 31.167 27.5557 32.3609 27.5557 33.8337V41.8337C27.5557 43.3064 28.7744 44.5003 30.2779 44.5003H43.889C45.3924 44.5003 46.6112 43.3064 46.6112 41.8337V33.8337C46.6112 32.3609 45.3924 31.167 43.889 31.167Z" fill="white"/>
<path d="M31.639 4.5H18.0279C16.5244 4.5 15.3057 5.69391 15.3057 7.16667V15.1667C15.3057 16.6394 16.5244 17.8333 18.0279 17.8333H31.639C33.1424 17.8333 34.3612 16.6394 34.3612 15.1667V7.16667C34.3612 5.69391 33.1424 4.5 31.639 4.5Z" fill="white"/>
</g>
<defs>
<clipPath id="clip0_1285_3868">
<rect width="49" height="48" fill="white" transform="translate(0.333496 0.5)"/>
</clipPath>
</defs>
</svg>
