<svg width="56" height="58" viewBox="0 0 56 58" fill="none" xmlns="http://www.w3.org/2000/svg">
<g clip-path="url(#clip0_1285_3882)">
<path fill-rule="evenodd" clip-rule="evenodd" d="M29.3864 55.7373L29.3584 55.742L29.1927 55.8252L29.1461 55.8347L29.1134 55.8252L28.9477 55.7397C28.9228 55.7333 28.9042 55.7381 28.8917 55.7539L28.8824 55.7777L28.8427 56.7942L28.8544 56.8417L28.8777 56.8725L29.1204 57.0483L29.1554 57.0578L29.1834 57.0483L29.4261 56.8725L29.4541 56.8345L29.4634 56.7942L29.4237 55.78C29.4175 55.7547 29.4051 55.7405 29.3864 55.7373ZM30.0024 55.4689L29.9697 55.4737L29.5404 55.6945L29.5171 55.7183L29.5101 55.7444L29.5521 56.7657L29.5637 56.7942L29.5824 56.8132L30.0514 57.0317C30.081 57.0396 30.1035 57.0333 30.1191 57.0127L30.1284 56.9794L30.0491 55.5212C30.0413 55.4911 30.0257 55.4737 30.0024 55.4689ZM28.3341 55.4737C28.3238 55.4673 28.3115 55.4653 28.2998 55.4679C28.288 55.4706 28.2777 55.4777 28.2711 55.4879L28.2571 55.5212L28.1777 56.9794C28.1793 57.0079 28.1925 57.0269 28.2174 57.0364L28.2524 57.0317L28.7214 56.8108L28.7447 56.7918L28.7517 56.7657L28.7937 55.7444L28.7867 55.7159L28.7634 55.6922L28.3341 55.4737Z" fill="white"/>
<path fill-rule="evenodd" clip-rule="evenodd" d="M36.3675 5.25C37.6051 5.25027 38.7919 5.75089 39.6668 6.64175L47.6328 14.75C48.5081 15.6406 48.9999 16.8486 49.0002 18.1082V38.5C49.0002 39.7598 48.5085 40.968 47.6333 41.8588C46.7582 42.7496 45.5712 43.25 44.3335 43.25H39.6668V48C39.6668 49.2598 39.1752 50.468 38.3 51.3588C37.4248 52.2496 36.2378 52.75 35.0002 52.75H14.0002C12.7625 52.75 11.5755 52.2496 10.7003 51.3588C9.82516 50.468 9.3335 49.2598 9.3335 48V19.5C9.3335 18.2402 9.82516 17.032 10.7003 16.1412C11.5755 15.2504 12.7625 14.75 14.0002 14.75H18.6668V10C18.6668 8.74022 19.1585 7.53204 20.0337 6.64124C20.9088 5.75044 22.0958 5.25 23.3335 5.25H36.3675ZM18.6668 19.5H14.0002V48H35.0002V43.25H23.3335C22.0958 43.25 20.9088 42.7496 20.0337 41.8588C19.1585 40.968 18.6668 39.7598 18.6668 38.5V19.5ZM32.6668 10H23.3335V38.5H44.3335V21.875H36.1668C35.2968 21.875 34.4579 21.5451 33.8139 20.9497C33.1698 20.3542 32.7667 19.536 32.6832 18.6545L32.6668 18.3125V10ZM37.3335 10.9833V17.125H43.3675L37.3335 10.9833Z" fill="white"/>
</g>
<defs>
<clipPath id="clip0_1285_3882">
<rect width="56" height="57" fill="white" transform="translate(0 0.5)"/>
</clipPath>
</defs>
</svg>
