<svg width="216" height="36" viewBox="0 0 216 36" fill="none" xmlns="http://www.w3.org/2000/svg">
<g clip-path="url(#clip0_1454_7371)">
<path d="M207.25 9C207.25 9.49246 207.347 9.98009 207.535 10.4351C207.724 10.89 208 11.3034 208.348 11.6516C208.697 11.9999 209.11 12.2761 209.565 12.4645C210.02 12.653 210.508 12.75 211 12.75C211.492 12.75 211.98 12.653 212.435 12.4645C212.89 12.2761 213.303 11.9999 213.652 11.6516C214 11.3034 214.276 10.89 214.465 10.4351C214.653 9.98009 214.75 9.49246 214.75 9C214.75 8.50754 214.653 8.01991 214.465 7.56494C214.276 7.10997 214 6.69657 213.652 6.34835C213.303 6.00013 212.89 5.72391 212.435 5.53545C211.98 5.347 211.492 5.25 211 5.25C210.508 5.25 210.02 5.347 209.565 5.53545C209.11 5.72391 208.697 6.00013 208.348 6.34835C208 6.69657 207.724 7.10997 207.535 7.56494C207.347 8.01991 207.25 8.50754 207.25 9Z" stroke="white" stroke-linecap="round" stroke-linejoin="round"/>
<path d="M211.834 8.06272C211.591 7.84927 211.275 7.73766 210.952 7.75108C210.629 7.76451 210.323 7.90194 210.099 8.1348C209.875 8.36722 209.75 8.67743 209.75 9.00022C209.75 9.32301 209.875 9.63322 210.099 9.86564C210.323 10.0985 210.629 10.2359 210.952 10.2494C211.275 10.2628 211.591 10.1512 211.834 9.93772" stroke="white" stroke-linecap="round" stroke-linejoin="round"/>
</g>
<g clip-path="url(#clip1_1454_7371)">
<path d="M115.25 8C115.25 8.49246 115.347 8.98009 115.535 9.43506C115.724 9.89003 116 10.3034 116.348 10.6517C116.697 10.9999 117.11 11.2761 117.565 11.4645C118.02 11.653 118.508 11.75 119 11.75C119.492 11.75 119.98 11.653 120.435 11.4645C120.89 11.2761 121.303 10.9999 121.652 10.6517C122 10.3034 122.276 9.89003 122.465 9.43506C122.653 8.98009 122.75 8.49246 122.75 8C122.75 7.50754 122.653 7.01991 122.465 6.56494C122.276 6.10997 122 5.69657 121.652 5.34835C121.303 5.00013 120.89 4.72391 120.435 4.53545C119.98 4.347 119.492 4.25 119 4.25C118.508 4.25 118.02 4.347 117.565 4.53545C117.11 4.72391 116.697 5.00013 116.348 5.34835C116 5.69657 115.724 6.10997 115.535 6.56494C115.347 7.01991 115.25 7.50754 115.25 8Z" stroke="white" stroke-linecap="round" stroke-linejoin="round"/>
<path d="M118.168 9.25V6.75H119.001C119.222 6.75 119.434 6.8378 119.591 6.99408C119.747 7.15036 119.835 7.36232 119.835 7.58333C119.835 7.80435 119.747 8.01631 119.591 8.17259C119.434 8.32887 119.222 8.41667 119.001 8.41667H118.168" stroke="white" stroke-linecap="round" stroke-linejoin="round"/>
<path d="M119.833 9.24935L119 8.41602" stroke="white" stroke-linecap="round" stroke-linejoin="round"/>
</g>
<path d="M10.25 5L13.986 8.73604L17.7221 5H10.25Z" fill="#DD1C55"/>
<path d="M21.8373 9.19922L9.18392 21.8526L1.2745 13.9474L0 15.2135L9.18392 24.3975L23.116 10.4654L21.8373 9.19922Z" fill="white"/>
<path d="M21.8373 13.7168L9.18392 26.3702L1.2745 18.4649L0 19.7311L9.18392 28.915L23.116 14.983L21.8373 13.7168Z" fill="white"/>
<path d="M21.8373 18.2695L9.18392 30.9229L1.2745 23.0177L0 24.2839L9.18392 33.4678L23.116 19.5357L21.8373 18.2695Z" fill="white"/>
<path d="M3.91085 13.4128L9.17969 18.6816L9.84234 18.019L4.5735 12.7501L3.91085 13.4128Z" fill="white"/>
<path d="M5.89913 11.4323L11.168 16.7012L11.8306 16.0385L6.56178 10.7697L5.89913 11.4323Z" fill="white"/>
<path d="M9.16758 10.7262L13.1523 14.7109L13.815 14.0483L9.83024 10.0635L9.16758 10.7262Z" fill="white"/>
<path d="M34.984 14.2748V9.31836H30.0234L34.984 14.2748Z" fill="#DD1C55"/>
<path d="M34.9798 14.2754H30.0234V25.496H34.9798V14.2754Z" fill="#DD1C55"/>
<path d="M42.9564 21.6685H49.4497V25.4962H38V5H42.9564V21.6685Z" fill="white"/>
<path d="M66.4096 18.5992H55.189C55.2639 19.6029 55.5888 20.3735 56.1594 20.9024C56.73 21.4356 57.4298 21.698 58.2628 21.698C59.4998 21.698 60.3578 21.1773 60.8451 20.1319H66.1222C65.8515 21.194 65.3642 22.1519 64.6561 23.0016C63.9522 23.8513 63.0651 24.5177 62.003 25.0008C60.9409 25.484 59.7497 25.7255 58.4377 25.7255C56.8508 25.7255 55.443 25.3882 54.206 24.7093C52.969 24.0345 52.0027 23.0682 51.3071 21.8104C50.6116 20.5526 50.2617 19.0865 50.2617 17.4038C50.2617 15.7211 50.6033 14.255 51.2905 12.9972C51.9777 11.7393 52.9398 10.773 54.1769 10.0983C55.4139 9.42356 56.8342 9.08203 58.4377 9.08203C60.0412 9.08203 61.3949 9.41107 62.6111 10.0691C63.8273 10.7272 64.7811 11.6644 65.4683 12.8806C66.1555 14.0967 66.4971 15.517 66.4971 17.1414C66.4971 17.6037 66.4679 18.0869 66.4096 18.5908V18.5992ZM61.424 15.8461C61.424 14.9964 61.1325 14.3175 60.5535 13.8177C59.9746 13.3137 59.2499 13.0638 58.3794 13.0638C57.5089 13.0638 56.8467 13.3054 56.276 13.7885C55.7054 14.2717 55.3514 14.9589 55.2181 15.8461H61.424Z" fill="white"/>
<path d="M77.6726 9.78515C78.5306 10.2475 79.1929 10.8597 79.6593 11.6136V9.32283H84.6157V25.4665C84.6157 26.9535 84.32 28.3029 83.7328 29.5108C83.1413 30.7187 82.2458 31.6808 81.038 32.3972C79.8301 33.1136 78.3265 33.4718 76.5314 33.4718C74.1365 33.4718 72.1914 32.9053 70.7045 31.7766C69.2176 30.6479 68.3637 29.1151 68.1513 27.1825H73.0494C73.2035 27.799 73.5701 28.2904 74.149 28.6486C74.7279 29.0068 75.4443 29.1859 76.294 29.1859C77.3186 29.1859 78.1349 28.8902 78.743 28.3029C79.3511 27.7115 79.6552 26.7702 79.6552 25.4749V23.1841C79.172 23.938 78.5056 24.5502 77.656 25.025C76.8063 25.4999 75.8108 25.7373 74.6696 25.7373C73.3368 25.7373 72.1289 25.3957 71.046 24.7085C69.9631 24.0213 69.1093 23.0466 68.4804 21.7805C67.8514 20.5143 67.5391 19.0524 67.5391 17.3864C67.5391 15.7203 67.8514 14.2667 68.4804 13.0089C69.1093 11.751 69.9631 10.7848 71.046 10.11C72.1289 9.43528 73.3368 9.09375 74.6696 9.09375C75.8108 9.09375 76.8105 9.32699 77.6685 9.78931L77.6726 9.78515ZM78.6306 14.4833C77.9433 13.7669 77.1103 13.4087 76.1232 13.4087C75.1361 13.4087 74.3031 13.7628 73.6159 14.4667C72.9286 15.1705 72.5871 16.1452 72.5871 17.3822C72.5871 18.6192 72.9286 19.598 73.6159 20.3269C74.3031 21.0516 75.1361 21.414 76.1232 21.414C77.1103 21.414 77.9433 21.0558 78.6306 20.3394C79.3178 19.623 79.6593 18.6484 79.6593 17.4113C79.6593 16.1743 79.3178 15.1997 78.6306 14.4833Z" fill="white"/>
<path d="M87.5858 13.0011C88.2148 11.7432 89.0686 10.7769 90.1515 10.1022C91.2344 9.42747 92.4423 9.08594 93.7751 9.08594C94.9163 9.08594 95.9159 9.31918 96.7739 9.7815C97.6319 10.2438 98.2942 10.8561 98.7606 11.61V9.31918H103.717V25.4962H98.7606V23.2054C98.2775 23.9593 97.6069 24.5674 96.7448 25.0339C95.8826 25.4962 94.883 25.7295 93.7459 25.7295C92.4298 25.7295 91.2344 25.3879 90.1515 24.7007C89.0686 24.0135 88.2148 23.0388 87.5858 21.7727C86.9569 20.5065 86.6445 19.0446 86.6445 17.3785C86.6445 15.7125 86.9569 14.2589 87.5858 13.0011ZM97.7319 14.4797C97.0446 13.7633 96.2116 13.4051 95.2245 13.4051C94.2374 13.4051 93.4044 13.7591 92.7172 14.463C92.0299 15.1669 91.6884 16.1415 91.6884 17.3785C91.6884 18.6156 92.0299 19.5943 92.7172 20.3232C93.4044 21.0479 94.2374 21.4103 95.2245 21.4103C96.2116 21.4103 97.0446 21.0521 97.7319 20.3357C98.4191 19.6193 98.7606 18.6447 98.7606 17.4077C98.7606 16.1707 98.4191 15.1961 97.7319 14.4797Z" fill="white"/>
<path d="M111.691 5V25.4962H106.734V5H111.691Z" fill="white"/>
<path d="M150.684 7.484L145.028 27H142.172L137.636 11.292L132.932 27L130.104 27.028L124.644 7.484H127.36L131.616 24.032L136.32 7.484H139.176L143.656 23.976L147.94 7.484H150.684ZM160.164 27.252C158.727 27.252 157.42 26.9253 156.244 26.272C155.087 25.6187 154.172 24.6947 153.5 23.5C152.847 22.2867 152.52 20.8867 152.52 19.3C152.52 17.732 152.856 16.3507 153.528 15.156C154.219 13.9427 155.152 13.0187 156.328 12.384C157.504 11.7307 158.82 11.404 160.276 11.404C161.732 11.404 163.048 11.7307 164.224 12.384C165.4 13.0187 166.324 13.9333 166.996 15.128C167.687 16.3227 168.032 17.7133 168.032 19.3C168.032 20.8867 167.678 22.2867 166.968 23.5C166.278 24.6947 165.335 25.6187 164.14 26.272C162.946 26.9253 161.62 27.252 160.164 27.252ZM160.164 25.012C161.079 25.012 161.938 24.7973 162.74 24.368C163.543 23.9387 164.187 23.2947 164.672 22.436C165.176 21.5773 165.428 20.532 165.428 19.3C165.428 18.068 165.186 17.0227 164.7 16.164C164.215 15.3053 163.58 14.6707 162.796 14.26C162.012 13.8307 161.163 13.616 160.248 13.616C159.315 13.616 158.456 13.8307 157.672 14.26C156.907 14.6707 156.291 15.3053 155.824 16.164C155.358 17.0227 155.124 18.068 155.124 19.3C155.124 20.5507 155.348 21.6053 155.796 22.464C156.263 23.3227 156.879 23.9667 157.644 24.396C158.41 24.8067 159.25 25.012 160.164 25.012ZM173.931 14.148C174.379 13.2707 175.013 12.5893 175.835 12.104C176.675 11.6187 177.692 11.376 178.887 11.376V14.008H178.215C175.359 14.008 173.931 15.5573 173.931 18.656V27H171.383V11.656H173.931V14.148ZM190.396 27L184.376 20.224V27H181.828V6.28H184.376V18.46L190.284 11.656H193.84L186.616 19.3L193.868 27H190.396ZM201.67 27.252C200.494 27.252 199.439 27.056 198.506 26.664C197.573 26.2533 196.835 25.6933 196.294 24.984C195.753 24.256 195.454 23.4253 195.398 22.492H198.03C198.105 23.2573 198.459 23.8827 199.094 24.368C199.747 24.8533 200.597 25.096 201.642 25.096C202.613 25.096 203.378 24.8813 203.938 24.452C204.498 24.0227 204.778 23.4813 204.778 22.828C204.778 22.156 204.479 21.6613 203.882 21.344C203.285 21.008 202.361 20.6813 201.11 20.364C199.971 20.0653 199.038 19.7667 198.31 19.468C197.601 19.1507 196.985 18.6933 196.462 18.096C195.958 17.48 195.706 16.6773 195.706 15.688C195.706 14.904 195.939 14.1853 196.406 13.532C196.873 12.8787 197.535 12.3653 198.394 11.992C199.253 11.6 200.233 11.404 201.334 11.404C203.033 11.404 204.405 11.8333 205.45 12.692C206.495 13.5507 207.055 14.7267 207.13 16.22H204.582C204.526 15.4173 204.199 14.7733 203.602 14.288C203.023 13.8027 202.239 13.56 201.25 13.56C200.335 13.56 199.607 13.756 199.066 14.148C198.525 14.54 198.254 15.0533 198.254 15.688C198.254 16.192 198.413 16.612 198.73 16.948C199.066 17.2653 199.477 17.5267 199.962 17.732C200.466 17.9187 201.157 18.1333 202.034 18.376C203.135 18.6747 204.031 18.9733 204.722 19.272C205.413 19.552 206.001 19.9813 206.486 20.56C206.99 21.1387 207.251 21.8947 207.27 22.828C207.27 23.668 207.037 24.424 206.57 25.096C206.103 25.768 205.441 26.3 204.582 26.692C203.742 27.0653 202.771 27.252 201.67 27.252Z" fill="white"/>
<defs>
<clipPath id="clip0_1454_7371">
<rect width="10" height="10" fill="white" transform="translate(206 4)"/>
</clipPath>
<clipPath id="clip1_1454_7371">
<rect width="10" height="10" fill="white" transform="translate(114 3)"/>
</clipPath>
</defs>
</svg>
