<svg width="244" height="29" viewBox="0 0 244 29" fill="none" xmlns="http://www.w3.org/2000/svg">
<g id="Group 24">
<g id="Group">
<path id="Vector" d="M10.25 0.263855L13.986 3.9999L17.7221 0.263855H10.25Z" fill="#E21860"/>
<path id="Vector_2" d="M21.8373 4.46225L9.18392 17.1157L1.2745 9.2104L0 10.4766L9.18392 19.6605L23.116 5.72842L21.8373 4.46225Z" fill="white"/>
<path id="Vector_3" d="M21.8373 8.9812L9.18392 21.6346L1.2745 13.7294L0 14.9955L9.18392 24.1794L23.116 10.2474L21.8373 8.9812Z" fill="white"/>
<path id="Vector_4" d="M21.8373 13.5335L9.18392 26.1869L1.2745 18.2817L0 19.5479L9.18392 28.7318L23.116 14.7997L21.8373 13.5335Z" fill="white"/>
<g id="Group_2">
<path id="Vector_5" d="M3.91036 8.67544L9.1792 13.9443L9.84185 13.2816L4.57301 8.01278L3.91036 8.67544Z" fill="white"/>
<path id="Vector_6" d="M5.89766 6.69622L11.1665 11.9651L11.8292 11.3024L6.56032 6.03356L5.89766 6.69622Z" fill="white"/>
<path id="Vector_7" d="M9.16807 5.9904L13.1528 9.97516L13.8155 9.3125L9.83072 5.32774L9.16807 5.9904Z" fill="white"/>
</g>
</g>
<g id="Group_3">
<path id="Vector_8" d="M34.9825 9.53895V4.58255H30.022L34.9825 9.53895Z" fill="#E21860"/>
<path id="Vector_9" d="M34.9784 9.53922H30.022V20.7598H34.9784V9.53922Z" fill="#E21860"/>
</g>
<g id="Group_4">
<path id="Vector_10" d="M42.9544 16.9324H49.4478V20.76H37.998V0.263855H42.9544V16.9324Z" fill="white"/>
<path id="Vector_11" d="M66.4076 13.8631H55.187C55.262 14.8668 55.5869 15.6374 56.1575 16.1663C56.7281 16.6995 57.4278 16.9619 58.2608 16.9619C59.4978 16.9619 60.3558 16.4412 60.8431 15.3958H66.1203C65.8495 16.4579 65.3622 17.4159 64.6542 18.2655C63.9503 19.1152 63.0631 19.7816 62.001 20.2647C60.9389 20.7479 59.7477 20.9895 58.4357 20.9895C56.8489 20.9895 55.4411 20.6521 54.2041 19.9732C52.967 19.2985 52.0008 18.3322 51.3052 17.0743C50.6096 15.8165 50.2598 14.3504 50.2598 12.6677C50.2598 10.985 50.6013 9.51893 51.2885 8.26109C51.9758 7.00325 52.9379 6.03695 54.1749 5.36222C55.4119 4.68748 56.8322 4.34595 58.4357 4.34595C60.0393 4.34595 61.3929 4.67499 62.6091 5.33306C63.8253 5.99114 64.7791 6.92827 65.4663 8.14447C66.1536 9.36066 66.4951 10.7809 66.4951 12.4053C66.4951 12.8676 66.466 13.3508 66.4076 13.8547V13.8631ZM61.4221 11.11C61.4221 10.2603 61.1305 9.58141 60.5516 9.0816C59.9727 8.57763 59.2479 8.32773 58.3774 8.32773C57.5069 8.32773 56.8447 8.5693 56.2741 9.05245C55.7035 9.53559 55.3495 10.2228 55.2162 11.11H61.4221Z" fill="white"/>
<path id="Vector_12" d="M77.6707 5.04958C78.5287 5.5119 79.1909 6.12416 79.6574 6.87804V4.58726H84.6138V20.731C84.6138 22.2179 84.3181 23.5674 83.7308 24.7752C83.1394 25.9831 82.2439 26.9452 81.036 27.6616C79.8282 28.378 78.3246 28.7362 76.5294 28.7362C74.1345 28.7362 72.1895 28.1697 70.7025 27.041C69.2156 25.9123 68.3618 24.3796 68.1494 22.447H73.0475C73.2016 23.0634 73.5681 23.5549 74.147 23.9131C74.726 24.2713 75.4424 24.4504 76.292 24.4504C77.3166 24.4504 78.133 24.1546 78.7411 23.5674C79.3492 22.9759 79.6532 22.0346 79.6532 20.7393V18.4485C79.1701 19.2024 78.5037 19.8147 77.654 20.2895C76.8043 20.7643 75.8089 21.0017 74.6677 21.0017C73.3349 21.0017 72.127 20.6602 71.0441 19.9729C69.9612 19.2857 69.1073 18.3111 68.4784 17.0449C67.8495 15.7787 67.5371 14.3168 67.5371 12.6508C67.5371 10.9848 67.8495 9.53117 68.4784 8.27333C69.1073 7.01548 69.9612 6.04919 71.0441 5.37446C72.127 4.69972 73.3349 4.35818 74.6677 4.35818C75.8089 4.35818 76.8085 4.59143 77.6665 5.05375L77.6707 5.04958ZM78.6286 9.74775C77.9414 9.03136 77.1084 8.67317 76.1213 8.67317C75.1342 8.67317 74.3011 9.0272 73.6139 9.73109C72.9267 10.435 72.5851 11.4096 72.5851 12.6466C72.5851 13.8836 72.9267 14.8624 73.6139 15.5913C74.3011 16.316 75.1342 16.6784 76.1213 16.6784C77.1084 16.6784 77.9414 16.3202 78.6286 15.6038C79.3159 14.8874 79.6574 13.9128 79.6574 12.6758C79.6574 11.4388 79.3159 10.4641 78.6286 9.74775Z" fill="white"/>
<path id="Vector_13" d="M87.5829 8.26518C88.2118 7.00733 89.0657 6.04104 90.1486 5.36631C91.2315 4.69157 92.4393 4.35004 93.7722 4.35004C94.9134 4.35004 95.913 4.58328 96.771 5.0456C97.629 5.50792 98.2912 6.12018 98.7577 6.87405V4.58328H103.714V20.7603H98.7577V18.4695C98.2746 19.2234 97.604 19.8315 96.7418 20.298C95.8797 20.7603 94.8801 20.9936 93.743 20.9936C92.4268 20.9936 91.2315 20.652 90.1486 19.9648C89.0657 19.2776 88.2118 18.3029 87.5829 17.0368C86.954 15.7706 86.6416 14.3087 86.6416 12.6426C86.6416 10.9766 86.954 9.52302 87.5829 8.26518ZM97.7289 9.74377C97.0417 9.02738 96.2087 8.66919 95.2216 8.66919C94.2345 8.66919 93.4015 9.02322 92.7142 9.72711C92.027 10.431 91.6855 11.4056 91.6855 12.6426C91.6855 13.8797 92.027 14.8584 92.7142 15.5873C93.4015 16.312 94.2345 16.6744 95.2216 16.6744C96.2087 16.6744 97.0417 16.3162 97.7289 15.5998C98.4162 14.8834 98.7577 13.9088 98.7577 12.6718C98.7577 11.4348 98.4162 10.4602 97.7289 9.74377Z" fill="white"/>
<path id="Vector_14" d="M111.69 0.263855V20.76H106.733V0.263855H111.69Z" fill="white"/>
</g>
<g id="Group_5">
<path id="Vector_15" d="M130.086 20.2686C129.07 19.8062 128.274 19.1565 127.695 18.3277C127.116 17.4988 126.804 16.57 126.767 15.5454H128.912C129.007 16.5325 129.445 17.3947 130.215 18.1402C130.99 18.8858 132.119 19.2565 133.606 19.2565C134.976 19.2565 136.063 18.9024 136.867 18.1985C137.667 17.4946 138.071 16.5992 138.071 15.5162C138.071 14.6458 137.85 13.946 137.404 13.4129C136.958 12.8798 136.409 12.4841 135.751 12.2259C135.093 11.9635 134.185 11.6802 133.027 11.372C131.673 11.0055 130.603 10.6473 129.807 10.2974C129.016 9.94758 128.337 9.41029 127.779 8.67308C127.216 7.94003 126.937 6.94459 126.937 5.68674C126.937 4.64132 127.208 3.71251 127.75 2.88783C128.291 2.06732 129.053 1.42174 130.04 0.959417C131.027 0.497097 132.156 0.263855 133.431 0.263855C135.305 0.263855 136.817 0.72201 137.966 1.64248C139.116 2.55879 139.778 3.74583 139.953 5.19527H137.75C137.612 4.36642 137.158 3.62505 136.388 2.97946C135.613 2.33388 134.572 2.00901 133.256 2.00901C132.04 2.00901 131.023 2.33388 130.211 2.97946C129.399 3.62921 128.995 4.5122 128.995 5.6326C128.995 6.48227 129.216 7.1695 129.661 7.69013C130.107 8.21076 130.661 8.60644 131.327 8.87717C131.994 9.14789 132.898 9.43945 134.039 9.74766C135.351 10.1142 136.417 10.4765 137.229 10.8347C138.041 11.1929 138.729 11.7386 139.287 12.4716C139.849 13.2046 140.128 14.1918 140.128 15.4288C140.128 16.3742 139.878 17.2739 139.374 18.1236C138.87 18.9732 138.129 19.6605 137.142 20.1811C136.155 20.7017 134.976 20.9641 133.606 20.9641C132.235 20.9641 131.098 20.7309 130.082 20.2686H130.086Z" fill="white"/>
<path id="Vector_16" d="M145.8 19.9938C144.613 19.3274 143.672 18.382 142.989 17.1533C142.301 15.9246 141.96 14.4918 141.96 12.8466C141.96 11.2014 142.31 9.76866 143.005 8.53997C143.701 7.31128 144.646 6.36582 145.846 5.69941C147.045 5.033 148.387 4.6998 149.878 4.6998C151.369 4.6998 152.714 5.033 153.922 5.69941C155.13 6.36582 156.075 7.31545 156.763 8.53997C157.45 9.76866 157.791 11.2014 157.791 12.8466C157.791 14.4918 157.441 15.8996 156.746 17.1366C156.05 18.3736 155.092 19.3274 153.876 19.9938C152.66 20.6602 151.306 20.9935 149.819 20.9935C148.332 20.9935 146.991 20.6602 145.804 19.9938H145.8ZM152.714 18.5153C153.601 18.0404 154.322 17.3282 154.876 16.3703C155.426 15.4123 155.7 14.2378 155.7 12.8466C155.7 11.4555 155.43 10.281 154.888 9.323C154.347 8.36504 153.63 7.65282 152.743 7.178C151.852 6.70319 150.886 6.46578 149.844 6.46578C148.803 6.46578 147.833 6.70319 146.946 7.178C146.054 7.65282 145.346 8.36504 144.813 9.323C144.28 10.281 144.017 11.4555 144.017 12.8466C144.017 14.2378 144.284 15.4123 144.813 16.3703C145.346 17.3282 146.05 18.0404 146.929 18.5153C147.808 18.9901 148.77 19.2275 149.815 19.2275C150.861 19.2275 151.827 18.9901 152.714 18.5153Z" fill="white"/>
<path id="Vector_17" d="M162.369 0.263855V20.76H160.34V0.263855H162.369Z" fill="white"/>
<path id="Vector_18" d="M179.533 4.9332V20.7604H177.505V17.9781C177.042 18.9652 176.326 19.7191 175.36 20.2397C174.393 20.7604 173.311 21.0228 172.111 21.0228C170.216 21.0228 168.671 20.4397 167.471 19.2693C166.272 18.0989 165.672 16.4037 165.672 14.1796V4.9332H167.671V13.9505C167.671 15.6707 168.1 16.9868 168.962 17.8948C169.82 18.8028 170.995 19.2568 172.486 19.2568C173.977 19.2568 175.231 18.7736 176.139 17.8073C177.047 16.8411 177.501 15.4208 177.501 13.5465V4.9332H179.529H179.533Z" fill="white"/>
<path id="Vector_19" d="M185.647 6.64054V16.47C185.647 17.4363 185.83 18.1027 186.196 18.4693C186.563 18.8358 187.213 19.019 188.137 19.019H189.991V20.76H187.817C186.384 20.76 185.322 20.4268 184.626 19.7604C183.931 19.094 183.581 17.9986 183.581 16.47V6.64054H181.377V4.9287H183.581V0.263855H185.638V4.93287H189.987V6.6447H185.638L185.647 6.64054Z" fill="white"/>
<path id="Vector_20" d="M192.141 2.81703C191.849 2.52547 191.708 2.17145 191.708 1.74245C191.708 1.31345 191.853 0.963582 192.141 0.684524C192.432 0.405466 192.778 0.263855 193.186 0.263855C193.594 0.263855 193.94 0.405466 194.232 0.684524C194.523 0.963582 194.665 1.31761 194.665 1.74245C194.665 2.16728 194.519 2.52547 194.232 2.81703C193.94 3.10858 193.594 3.25019 193.186 3.25019C192.778 3.25019 192.432 3.10442 192.141 2.81703ZM194.198 6.23653V21.0224H192.17V6.23653H194.198Z" fill="white"/>
<path id="Vector_21" d="M200.562 19.9938C199.375 19.3274 198.434 18.382 197.751 17.1533C197.064 15.9246 196.722 14.4918 196.722 12.8466C196.722 11.2014 197.072 9.76866 197.768 8.53997C198.463 7.31128 199.409 6.36582 200.608 5.69941C201.808 5.033 203.149 4.6998 204.64 4.6998C206.131 4.6998 207.476 5.033 208.684 5.69941C209.892 6.36582 210.838 7.31545 211.525 8.53997C212.212 9.76866 212.554 11.2014 212.554 12.8466C212.554 14.4918 212.204 15.8996 211.508 17.1366C210.813 18.3736 209.855 19.3274 208.638 19.9938C207.422 20.6602 206.069 20.9935 204.582 20.9935C203.095 20.9935 201.754 20.6602 200.567 19.9938H200.562ZM207.476 18.5153C208.363 18.0404 209.084 17.3282 209.638 16.3703C210.188 15.4123 210.463 14.2378 210.463 12.8466C210.463 11.4555 210.192 10.281 209.65 9.323C209.109 8.36504 208.393 7.65282 207.505 7.178C206.614 6.70319 205.648 6.46578 204.607 6.46578C203.565 6.46578 202.595 6.70319 201.708 7.178C200.816 7.65282 200.108 8.36504 199.575 9.323C199.042 10.281 198.78 11.4555 198.78 12.8466C198.78 14.2378 199.046 15.4123 199.575 16.3703C200.108 17.3282 200.812 18.0404 201.691 18.5153C202.57 18.9901 203.532 19.2275 204.577 19.2275C205.623 19.2275 206.589 18.9901 207.476 18.5153Z" fill="white"/>
<path id="Vector_22" d="M227.165 6.39461C228.364 7.56499 228.964 9.26016 228.964 11.4843V20.7598H226.965V11.7134C226.965 9.99321 226.536 8.68122 225.674 7.76908C224.811 6.8611 223.641 6.40711 222.15 6.40711C220.659 6.40711 219.405 6.89025 218.497 7.85654C217.589 8.82283 217.135 10.2431 217.135 12.1174V20.7557H215.107V4.93268H217.135V7.62747C217.639 6.66118 218.364 5.92396 219.309 5.41166C220.255 4.89936 221.33 4.64529 222.529 4.64529C224.424 4.64529 225.969 5.2284 227.169 6.39878L227.165 6.39461Z" fill="white"/>
<path id="Vector_23" d="M233.296 19.7314C232.147 18.8901 231.505 17.7447 231.368 16.2953H233.454C233.55 17.1824 233.971 17.903 234.716 18.4569C235.462 19.0067 236.462 19.2816 237.715 19.2816C238.815 19.2816 239.681 19.0192 240.31 18.4986C240.939 17.978 241.251 17.3282 241.251 16.5577C241.251 16.0162 241.076 15.5706 240.731 15.2249C240.381 14.875 239.944 14.6001 239.41 14.4002C238.877 14.1961 238.157 13.9795 237.249 13.7463C236.07 13.4381 235.112 13.1298 234.379 12.8175C233.646 12.5093 233.021 12.0511 232.509 11.4388C231.997 10.8307 231.743 10.0144 231.743 8.98979C231.743 8.2151 231.976 7.50287 232.438 6.8448C232.9 6.18672 233.559 5.66609 234.408 5.27874C235.258 4.89139 236.224 4.6998 237.307 4.6998C239.006 4.6998 240.381 5.1288 241.422 5.99096C242.468 6.85313 243.026 8.036 243.105 9.54375H241.076C241.018 8.61494 240.656 7.86523 239.989 7.29879C239.323 6.72818 238.411 6.44495 237.249 6.44495C236.224 6.44495 235.395 6.68652 234.754 7.16967C234.117 7.65282 233.796 8.25258 233.796 8.96897C233.796 9.58956 233.983 10.0935 234.362 10.4892C234.737 10.8849 235.208 11.1931 235.77 11.418C236.332 11.6388 237.086 11.8887 238.032 12.1552C239.173 12.4634 240.081 12.7633 240.756 13.0549C241.43 13.3464 242.014 13.7713 242.497 14.3294C242.98 14.8917 243.23 15.633 243.251 16.5618C243.251 17.4115 243.017 18.1696 242.555 18.836C242.093 19.5024 241.443 20.0313 240.614 20.4145C239.781 20.8019 238.827 20.9935 237.744 20.9935C235.928 20.9935 234.446 20.5728 233.292 19.7314H233.296Z" fill="white"/>
</g>
</g>
</svg>
